<svg id="icon_boxing" xmlns="http://www.w3.org/2000/svg" xmlns:xlink="http://www.w3.org/1999/xlink" width="68" height="67.999" viewBox="0 0 68 67.999">
  <defs>
    <linearGradient id="linear-gradient" x1="-0.157" y1="0.5" x2="0.63" y2="0.5" gradientUnits="objectBoundingBox">
      <stop offset="0" stop-color="#fe646f"/>
      <stop offset="0.704" stop-color="#e41f2d"/>
      <stop offset="1" stop-color="#c41926"/>
    </linearGradient>
    <linearGradient id="linear-gradient-2" x1="-0.554" y1="0.5" x2="-0.172" y2="0.5" gradientUnits="objectBoundingBox">
      <stop offset="0" stop-color="#c41926"/>
      <stop offset="1" stop-color="#c41926"/>
    </linearGradient>
    <linearGradient id="linear-gradient-3" x1="-0.419" y1="0.5" x2="1.057" y2="0.5" gradientUnits="objectBoundingBox">
      <stop offset="0" stop-color="#fe99a0"/>
      <stop offset="0.593" stop-color="#fe646f"/>
      <stop offset="1" stop-color="#e41f2d"/>
    </linearGradient>
    <linearGradient id="linear-gradient-4" x1="-0.419" y1="0.5" x2="1.057" y2="0.5" xlink:href="#linear-gradient"/>
    <linearGradient id="linear-gradient-5" x1="-0.269" y1="0.5" x2="1.144" y2="0.5" xlink:href="#linear-gradient-3"/>
    <linearGradient id="linear-gradient-6" x1="0.187" y1="0.5" x2="1.528" y2="0.5" xlink:href="#linear-gradient"/>
    <linearGradient id="linear-gradient-7" x1="0.087" y1="0.5" x2="1.407" y2="0.5" xlink:href="#linear-gradient"/>
    <linearGradient id="linear-gradient-8" x1="-0.564" y1="0.5" x2="1.081" y2="0.5" gradientUnits="objectBoundingBox">
      <stop offset="0" stop-color="#fff9df"/>
      <stop offset="0.593" stop-color="#ffe177"/>
      <stop offset="1" stop-color="#feb137"/>
    </linearGradient>
    <linearGradient id="linear-gradient-9" x1="-0.749" y1="0.5" x2="0.268" y2="0.5" xlink:href="#linear-gradient-8"/>
    <linearGradient id="linear-gradient-10" x1="-1.032" y1="0.5" x2="0.927" y2="0.5" xlink:href="#linear-gradient-3"/>
    <linearGradient id="linear-gradient-11" x1="-0.564" y1="0.5" x2="1.081" y2="0.5" xlink:href="#linear-gradient-3"/>
    <linearGradient id="linear-gradient-12" x1="-0.564" y1="0.5" x2="1.081" y2="0.5" xlink:href="#linear-gradient"/>
    <linearGradient id="linear-gradient-13" x1="-0.024" y1="0.5" x2="0.987" y2="0.5" xlink:href="#linear-gradient-8"/>
    <linearGradient id="linear-gradient-14" x1="-2.248" y1="0.5" x2="0.297" y2="0.5" xlink:href="#linear-gradient-8"/>
  </defs>
  <g id="Group_80" data-name="Group 80">
    <path id="Path_244" data-name="Path 244" d="M50.858,0h-13.9A12.563,12.563,0,0,0,24.4,12.565v13.9a12.524,12.524,0,0,0,4.135,9.313,8.445,8.445,0,0,1,2.83,6.25v.056h25.1v-.056a8.445,8.445,0,0,1,2.83-6.25,12.524,12.524,0,0,0,4.135-9.313v-13.9A12.563,12.563,0,0,0,50.858,0Z" transform="translate(-21.142 -0.002)" fill="url(#linear-gradient)"/>
    <path id="Path_245" data-name="Path 245" d="M178.956,199.9v2.4h6.006v-2.416Z" transform="translate(-155.095 -173.232)" fill="url(#linear-gradient-2)"/>
    <path id="Path_246" data-name="Path 246" d="M65.874,15.215v-2.65C65.874,5.626,59.9,0,52.522,0H37.747C30.373,0,24.395,5.626,24.395,12.565v2.65c0,6.326,5.451,11.455,12.175,11.455H53.7C60.424,26.67,65.874,21.541,65.874,15.215Z" transform="translate(-21.142 -0.002)" fill="url(#linear-gradient-3)"/>
    <path id="Path_247" data-name="Path 247" d="M186.475,0h-5.336c7.374,0,13.352,5.624,13.352,12.563,0,0,0,.3-.007.743a3.19,3.19,0,0,1-3.189,3.159,12.566,12.566,0,0,0-12.34,10.2h8.7c6.724,0,12.175-5.128,12.175-11.455v-2.65C199.827,5.626,193.849,0,186.475,0Z" transform="translate(-155.095 -0.002)" fill="url(#linear-gradient-4)"/>
    <path id="Path_248" data-name="Path 248" d="M10.3,86.956a.439.439,0,0,1,.086-.869h6.483a5.9,5.9,0,0,0,5.9-5.9A3.788,3.788,0,0,0,18.978,76.4H4.821A4.821,4.821,0,0,0,0,81.22v6.6c0,7.827,6.878,13.716,7.418,14.2a8.31,8.31,0,0,1,2.8,6.169v.109H23.032v-6.14A15.737,15.737,0,0,0,10.3,86.956Z" transform="translate(0 -66.213)" fill="url(#linear-gradient-5)"/>
    <g id="Group_79" data-name="Group 79" transform="translate(4.778 10.186)">
      <path id="Path_249" data-name="Path 249" d="M41.356,149.928a.439.439,0,0,1,.086-.869H36.277a.439.439,0,0,0-.086.869,15.5,15.5,0,0,1,12.469,15.2v6.14h5.431v-6.14A15.737,15.737,0,0,0,41.356,149.928Z" transform="translate(-35.838 -139.371)" fill="url(#linear-gradient-6)"/>
      <path id="Path_250" data-name="Path 250" d="M95.033,76.4H89.868a3.788,3.788,0,0,1,3.788,3.788,5.9,5.9,0,0,1-5.9,5.9h5.165a5.9,5.9,0,0,0,5.9-5.9A3.788,3.788,0,0,0,95.033,76.4Z" transform="translate(-80.834 -76.399)" fill="url(#linear-gradient-7)"/>
    </g>
    <path id="Path_251" data-name="Path 251" d="M80.718,317.206h-25.9a2.893,2.893,0,0,1-2.893-2.893v-4.878a2.893,2.893,0,0,1,2.893-2.893h25.9a2.893,2.893,0,0,1,2.893,2.893v4.878A2.893,2.893,0,0,1,80.718,317.206Z" transform="translate(-45.003 -265.67)" fill="url(#linear-gradient-8)"/>
    <path id="Path_252" data-name="Path 252" d="M153.014,314.313v-4.878a2.893,2.893,0,0,0-2.893-2.893H132.007a8.219,8.219,0,0,0,1.915,3.01l6.8,6.8v0q.349.444.737.854h8.659A2.892,2.892,0,0,0,153.014,314.313Z" transform="translate(-114.406 -265.67)" fill="url(#linear-gradient-9)"/>
  </g>
  <g id="Group_81" data-name="Group 81" transform="translate(22.443 16.464)">
    <path id="Path_253" data-name="Path 253" d="M177.535,223.917l-6.8-6.8a8.223,8.223,0,0,1-2.408-5.814v-6.6a4.821,4.821,0,0,1,4.821-4.821h4.391v24.035Z" transform="translate(-168.323 -189.696)" fill="url(#linear-gradient-10)"/>
    <path id="Path_254" data-name="Path 254" d="M243.772,123.486h-13.9a12.563,12.563,0,0,0-12.563,12.563v13.9a12.524,12.524,0,0,0,4.135,9.313,8.445,8.445,0,0,1,2.83,6.25v.056h25.1v-.056a8.445,8.445,0,0,1,2.83-6.25,12.524,12.524,0,0,0,4.135-9.313v-13.9A12.563,12.563,0,0,0,243.772,123.486Z" transform="translate(-210.778 -123.486)" fill="url(#linear-gradient-11)"/>
    <path id="Path_255" data-name="Path 255" d="M381.1,123.486h-5.336a12.563,12.563,0,0,1,12.563,12.563v13.9a12.524,12.524,0,0,1-4.135,9.313,8.445,8.445,0,0,0-2.83,6.25v.056H386.7v-.056a8.445,8.445,0,0,1,2.83-6.25,12.524,12.524,0,0,0,4.135-9.313v-13.9A12.563,12.563,0,0,0,381.1,123.486Z" transform="translate(-348.106 -123.486)" fill="url(#linear-gradient-12)"/>
    <path id="Path_256" data-name="Path 256" d="M273.632,440.689h-25.9a2.893,2.893,0,0,1-2.893-2.893v-4.878a2.893,2.893,0,0,1,2.893-2.893h25.9a2.893,2.893,0,0,1,2.893,2.893V437.8A2.893,2.893,0,0,1,273.632,440.689Z" transform="translate(-234.638 -389.154)" fill="url(#linear-gradient-13)"/>
    <path id="Path_257" data-name="Path 257" d="M426.095,430.025h-5.336a2.893,2.893,0,0,1,2.893,2.893V437.8a2.893,2.893,0,0,1-2.893,2.893h5.336a2.893,2.893,0,0,0,2.893-2.893v-4.878A2.893,2.893,0,0,0,426.095,430.025Z" transform="translate(-387.101 -389.154)" fill="url(#linear-gradient-14)"/>
  </g>
</svg>
