<svg id="icon_success" xmlns="http://www.w3.org/2000/svg" width="44" height="44" viewBox="0 0 44 44">
  <circle id="Ellipse_5" data-name="Ellipse 5" cx="22" cy="22" r="22" fill="#f9f9f9"/>
  <g id="award" transform="translate(10 10)">
    <path id="Path_171" data-name="Path 171" d="M364.249,0h-2.027l-1.439,1.406h3.466a.7.7,0,0,1,.7.7V3.181a6.266,6.266,0,0,1-4.284,5.944l-.992.33a.7.7,0,0,0,.222,1.371.722.722,0,0,0,.222-.036l.992-.331a7.67,7.67,0,0,0,5.245-7.278V2.109A2.112,2.112,0,0,0,364.249,0Zm0,0" transform="translate(-342.359 0)" fill="#ff7816"/>
    <path id="Path_172" data-name="Path 172" d="M6.682,9.454l-.992-.33A6.268,6.268,0,0,1,1.406,3.18V2.109a.7.7,0,0,1,.7-.7H5.743L4.136,0H2.109A2.112,2.112,0,0,0,0,2.109V3.18a7.672,7.672,0,0,0,5.245,7.278l.992.33a.722.722,0,0,0,.222.036.7.7,0,0,0,.222-1.371Zm0,0" fill="#ff9f00"/>
    <path id="Path_173" data-name="Path 173" d="M98.221,13.726v1.041a.7.7,0,0,0,.7.7,2.106,2.106,0,0,1,2.109,2.109v1.406a.7.7,0,0,1-.7.7H91.8a.7.7,0,0,1-.7-.7V17.579a2.106,2.106,0,0,1,2.109-2.109.7.7,0,0,0,.7-.7V13.726a7.01,7.01,0,0,1-4.837-5.878L88.2,0h15.731l-.872,7.847a7.01,7.01,0,0,1-4.837,5.878Zm0,0" transform="translate(-84.065 -0.001)" fill="#ffd400"/>
    <path id="Path_174" data-name="Path 174" d="M260.266,19.688H256V0h7.866l-.872,7.847a7.01,7.01,0,0,1-4.837,5.878v1.041a.7.7,0,0,0,.7.7,2.106,2.106,0,0,1,2.109,2.109v1.406a.7.7,0,0,1-.7.7Zm0,0" transform="translate(-244 0)" fill="#ff9f00"/>
    <path id="Path_175" data-name="Path 175" d="M188.035,63.059a.715.715,0,0,0-.576-.492l-1.575-.225-.7-1.392a.745.745,0,0,0-1.266,0l-.7,1.392-1.575.225a.7.7,0,0,0-.38,1.209l1.125,1.083-.267,1.519a.713.713,0,0,0,.281.689.69.69,0,0,0,.731.056l1.42-.731,1.42.731a.688.688,0,0,0,.731-.056.713.713,0,0,0,.281-.689l-.267-1.519,1.125-1.083A.719.719,0,0,0,188.035,63.059Zm0,0" transform="translate(-172.548 -57.758)" fill="#ff9f00"/>
    <path id="Path_176" data-name="Path 176" d="M132.75,390.7v4.256H120V390.7a.7.7,0,0,1,.7-.7h11.344A.7.7,0,0,1,132.75,390.7Zm0,0" transform="translate(-114.375 -371.719)" fill="#ec5569"/>
    <path id="Path_177" data-name="Path 177" d="M257.421,67.123,256,66.391V60.6a.7.7,0,0,1,.633.352l.7,1.392,1.575.225a.7.7,0,0,1,.38,1.209l-1.125,1.083.267,1.519a.713.713,0,0,1-.281.689.688.688,0,0,1-.731.056Zm0,0" transform="translate(-244 -57.757)" fill="#ff7816"/>
    <path id="Path_178" data-name="Path 178" d="M262.375,390.7v4.256H256V390h5.672A.7.7,0,0,1,262.375,390.7Zm0,0" transform="translate(-244 -371.719)" fill="#cc2e43"/>
    <path id="Path_179" data-name="Path 179" d="M105.563,482.7a.7.7,0,0,1-.7.7H90.7a.7.7,0,0,1,0-1.406h14.156A.7.7,0,0,1,105.563,482.7Zm0,0" transform="translate(-85.781 -459.407)" fill="#697c86"/>
    <path id="Path_180" data-name="Path 180" d="M263.781,482.7a.7.7,0,0,1-.7.7H256V482h7.078A.7.7,0,0,1,263.781,482.7Zm0,0" transform="translate(-244 -459.407)" fill="#465a61"/>
  </g>
</svg>
